<svg height="496pt" viewBox="0 0 496 496" width="496pt" xmlns="http://www.w3.org/2000/svg"><path d="m401.488281 356.664062 30.511719-6.105468v-77.117188l-30.511719-6.105468c-3.265625-11.246094-7.746093-22.070313-13.367187-32.304688l17.253906-25.878906-54.535156-54.527344-25.878906 17.253906c-10.21875-5.621094-21.050782-10.101562-32.296876-13.367187l-6.105468-30.511719h-77.117188l-6.097656 30.511719c-11.160156 3.242187-21.894531 7.664062-32.03125 13.214843l-26.199219-17.046874-54.433593 54.425781 17.046874 26.214843c-5.503906 10.046876-9.894531 20.679688-13.125 31.71875l-30.601562 6.472657v76.96875l30.601562 6.480469c3.222657 11.039062 7.621094 21.671874 13.125 31.71875l-17.046874 26.214843 54.433593 54.425781 26.199219-17.046874c10.046875 5.496093 20.679688 9.894531 31.71875 13.125l6.480469 30.601562h76.96875l6.488281-30.601562c11.136719-3.253907 21.855469-7.710938 31.984375-13.277344l25.878906 17.253906 54.535157-54.527344-17.253907-25.878906c5.628907-10.234375 10.101563-21.066406 13.375-32.304688zm-16.703125 56.144532-35.976562 35.984375-23.273438-15.511719-4.328125 2.566406c-11.535156 6.832032-24.007812 12.015625-37.0625 15.398438l-4.792969 1.242187-5.839843 27.511719h-51.03125l-5.832031-27.519531-4.792969-1.242188c-12.945313-3.351562-25.3125-8.46875-36.765625-15.214843l-4.273438-2.511719-23.570312 15.328125-36.085938-36.085938 15.328125-23.578125-2.511719-4.273437c-6.746093-11.445313-11.855468-23.8125-15.207031-36.757813l-1.234375-4.800781-27.535156-5.832031v-51.03125l27.527344-5.832031 1.234375-4.800782c3.351562-12.945312 8.46875-25.3125 15.207031-36.757812l2.511719-4.273438-15.328125-23.578125 36.085937-36.085937 23.570313 15.328125 4.269531-2.511719c11.546875-6.808594 24.035156-11.953125 37.113281-15.304688l4.871094-1.25 5.496094-27.414062h50.875l5.488281 27.425781 4.871094 1.246094c13.175781 3.375 25.765625 8.585937 37.40625 15.488281l4.328125 2.566406 23.273437-15.511718 35.976563 35.984375-15.503906 23.273437 2.558593 4.328125c6.894531 11.648438 12.113281 24.230469 15.488281 37.40625l1.246094 4.871094 27.433594 5.480469v50.882812l-27.433594 5.488282-1.246094 4.871093c-3.375 13.175781-8.585937 25.757813-15.488281 37.40625l-2.558593 4.328125zm0 0"/><path d="m240 160h16v16h-16zm0 0"/><path d="m134.867188 210.171875 11.3125-11.3125 11.316406 11.3125-11.316406 11.316406zm0 0"/><path d="m96 304h16v16h-16zm0 0"/><path d="m134.863281 413.820312 11.316407-11.316406 11.3125 11.316406-11.3125 11.3125zm0 0"/><path d="m240 448h16v16h-16zm0 0"/><path d="m338.503906 413.820312 11.3125-11.3125 11.3125 11.3125-11.3125 11.3125zm0 0"/><path d="m384 304h16v16h-16zm0 0"/><path d="m338.503906 210.175781 11.316406-11.316406 11.3125 11.316406-11.3125 11.3125zm0 0"/><path d="m248 208c-57.34375 0-104 46.65625-104 104s46.65625 104 104 104 104-46.65625 104-104-46.65625-104-104-104zm0 192c-48.519531 0-88-39.480469-88-88s39.480469-88 88-88 88 39.480469 88 88-39.480469 88-88 88zm0 0"/><path d="m248 256c-30.871094 0-56 25.121094-56 56s25.128906 56 56 56 56-25.121094 56-56-25.128906-56-56-56zm0 96c-22.054688 0-40-17.945312-40-40s17.945312-40 40-40 40 17.945312 40 40-17.945312 40-40 40zm0 0"/><path d="m432 416h16v16h-16zm0 0"/><path d="m432 448h16v16h-16zm0 0"/><path d="m448 432h16v16h-16zm0 0"/><path d="m416 432h16v16h-16zm0 0"/><path d="m16 432h16v16h-16zm0 0"/><path d="m16 464h16v16h-16zm0 0"/><path d="m32 448h16v16h-16zm0 0"/><path d="m0 448h16v16h-16zm0 0"/><path d="m464 160h16v16h-16zm0 0"/><path d="m464 192h16v16h-16zm0 0"/><path d="m480 176h16v16h-16zm0 0"/><path d="m448 176h16v16h-16zm0 0"/><path d="m32 176h16v16h-16zm0 0"/><path d="m32 208h16v16h-16zm0 0"/><path d="m48 192h16v16h-16zm0 0"/><path d="m16 192h16v16h-16zm0 0"/><path d="m72 144c23.992188 0 46.496094-12.152344 59.800781-32h232.40625c13.304688 19.847656 35.808594 32 59.800781 32 16.511719 0 32.089844-5.511719 45.023438-15.9375l2.976562-2.398438v-29.664062h-35.054687l-12-24 12-24h35.046875v-29.664062l-2.976562-2.398438c-12.933594-10.425781-28.511719-15.9375-45.023438-15.9375-23.992188 0-46.496094 12.152344-59.800781 32h-232.398438c-13.304687-19.847656-35.808593-32-59.800781-32-16.511719 0-32.089844 5.511719-45.023438 15.9375l-2.976562 2.398438v29.664062h35.054688l12 24-12 24h-35.054688v29.664062l2.976562 2.398438c12.933594 10.425781 28.511719 15.9375 45.023438 15.9375zm-32-32h28.945312l20-40-20-40h-28.945312v-5.855469c9.433594-6.648437 20.414062-10.144531 32-10.144531 19.871094 0 38.441406 10.734375 48.449219 28.007812l2.3125 3.992188h250.484375l2.3125-3.992188c10-17.273437 28.570312-28.007812 48.441406-28.007812 11.585938 0 22.566406 3.496094 32 10.144531v5.855469h-28.945312l-20 40 20 40h28.945312v5.855469c-9.433594 6.648437-20.414062 10.144531-32 10.144531-19.871094 0-38.441406-10.734375-48.449219-28.007812l-2.3125-3.992188h-250.476562l-2.3125 3.992188c-10.007813 17.273437-28.578125 28.007812-48.449219 28.007812-11.585938 0-22.566406-3.496094-32-10.144531zm0 0"/></svg>