<svg height="496pt" viewBox="0 0 496 496" width="496pt" xmlns="http://www.w3.org/2000/svg"><path d="m336.375 346.703125 12.183594-20.535156-42.726563-42.726563-20.535156 12.183594c-.394531-.167969-.785156-.328125-1.167969-.488281l-5.921875-23.136719h-60.421875l-5.914062 23.144531c-.390625.160157-.78125.320313-1.167969.488281l-20.535156-12.183593-42.726563 42.726562 12.183594 20.535157c-.167969.394531-.328125.785156-.488281 1.167968l-23.136719 5.914063v60.421875l23.144531 5.914062c.160157.390625.320313.78125.488281 1.167969l-12.183593 20.535156 42.726562 42.726563 20.535157-12.183594c.394531.167969.785156.328125 1.167968.488281l5.914063 23.136719h60.421875l5.914062-23.144531c.390625-.160157.78125-.320313 1.167969-.488281l20.535156 12.183593 42.726563-42.726562-12.183594-20.535157c.167969-.394531.328125-.785156.488281-1.167968l23.136719-5.914063v-60.421875l-23.144531-5.914062c-.152344-.382813-.320313-.773438-.480469-1.167969zm7.625 55.089844-19.257812 4.910156-1.429688 4.03125c-.914062 2.609375-1.976562 5.152344-3.160156 7.625l-1.839844 3.847656 10.144531 17.097657-25.152343 25.152343-17.097657-10.144531-3.847656 1.839844c-2.480469 1.175781-5.015625 2.238281-7.625 3.160156l-4.03125 1.429688-4.910156 19.257812h-35.578125l-4.910156-19.257812-4.03125-1.429688c-2.609376-.914062-5.152344-1.976562-7.625-3.160156l-3.847657-1.839844-17.097656 10.144531-25.152344-25.152343 10.144531-17.097657-1.839843-3.847656c-1.175781-2.480469-2.238281-5.015625-3.160157-7.625l-1.429687-4.03125-19.265625-4.910156v-35.578125l19.257812-4.910156 1.429688-4.03125c.914062-2.609376 1.976562-5.152344 3.160156-7.625l1.839844-3.847657-10.144531-17.097656 25.152343-25.152344 17.097657 10.144531 3.847656-1.839843c2.480469-1.175781 5.015625-2.238281 7.625-3.160157l4.03125-1.429687 4.910156-19.265625h35.578125l4.910156 19.257812 4.03125 1.429688c2.609376.914062 5.152344 1.976562 7.625 3.160156l3.847657 1.839844 17.097656-10.144531 25.152344 25.152343-10.144531 17.097657 1.839843 3.847656c1.175781 2.480469 2.238281 5.015625 3.160157 7.625l1.429687 4.03125 19.265625 4.910156zm0 0"/><path d="m248 320c-35.289062 0-64 28.710938-64 64s28.710938 64 64 64 64-28.710938 64-64-28.710938-64-64-64zm0 112c-26.472656 0-48-21.527344-48-48s21.527344-48 48-48 48 21.527344 48 48-21.527344 48-48 48zm0 0"/><path d="m248 352c-17.648438 0-32 14.351562-32 32s14.351562 32 32 32 32-14.351562 32-32-14.351562-32-32-32zm0 48c-8.824219 0-16-7.175781-16-16s7.175781-16 16-16 16 7.175781 16 16-7.175781 16-16 16zm0 0"/><path d="m304 256v-144h-48v144h16v-128h16v128zm0 0"/><path d="m240 256v-112h-48v112h16v-96h16v96zm0 0"/><path d="m416 96c-3.488281 0-6.9375.304688-10.351562.753906-10.929688-55.699218-60.046876-96.753906-117.648438-96.753906-42.535156 0-81.207031 22.078125-102.871094 58.160156-12.296875-6.472656-26.28125-10.160156-41.128906-10.160156-45.992188 0-83.792969 35.480469-87.625 80.496094-31.703125 3.785156-56.375 30.800781-56.375 63.503906 0 35.289062 28.710938 64 64 64h64v40h16v-104h16v88h16v-104h-48v64h-64c-26.472656 0-48-21.527344-48-48s21.527344-48 48-48c13.007812 0 25.175781 5.121094 34.289062 14.40625l11.421876-11.191406c-10.152344-10.367188-23.191407-16.765625-37.328126-18.605469 3.714844-36.242187 34.410157-64.609375 71.617188-64.609375 37.175781 0 67.976562 27.847656 71.640625 64.792969l15.917969-1.578125c-2.445313-24.695313-14.855469-46.015625-32.992188-60.3125 18.722656-31.566406 52.386719-50.902344 89.433594-50.902344 50.113281 0 92.800781 35.847656 102.054688 84.390625-12.808594 4.402344-24.460938 11.976563-33.679688 22.273437l11.921875 10.671876c12.144531-13.558594 29.527344-21.335938 47.703125-21.335938 35.289062 0 64 28.710938 64 64s-28.710938 64-64 64h-48v-48h-48v88h16v-72h16v88h16v-40h48c44.113281 0 80-35.886719 80-80s-35.886719-80-80-80zm0 0"/><path d="m416 208v16c26.472656 0 48-21.527344 48-48s-21.527344-48-48-48v16c17.648438 0 32 14.351562 32 32s-14.351562 32-32 32zm0 0"/></svg>