<svg height="496pt" viewBox="-56 0 496 496" width="496pt" xmlns="http://www.w3.org/2000/svg"><path d="m192 256c13.230469 0 24-10.769531 24-24s-10.769531-24-24-24-24 10.769531-24 24 10.769531 24 24 24zm0-32c4.414062 0 8 3.59375 8 8s-3.585938 8-8 8-8-3.59375-8-8 3.585938-8 8-8zm0 0"/><path d="m384 32h-160.023438c0-.257812.023438-.511719.023438-.777344 0-17.214844-14.007812-31.222656-31.222656-31.222656h-1.546875c-17.222657 0-31.230469 14.007812-31.230469 31.222656 0 .273438.023438.511719.023438.777344h-160.023438v272h72v36.625c0 14.253906 4.175781 28.070312 12.097656 39.941406l19.902344 29.859375v37.574219h-16v48h208v-48h-16v-37.574219l19.902344-29.859375c7.921875-11.878906 12.097656-25.6875 12.097656-39.941406v-36.625h72zm-259.902344 183.304688 36.972656-28.945313c9.785157 3.664063 20.21875 5.640625 30.929688 5.640625s21.144531-1.976562 30.929688-5.640625l129.871093 101.640625h-216.800781v-48c0-9.992188-4.703125-18.824219-11.902344-24.695312zm-51.632812 20.078124-56.464844 44.203126v-220.984376l115.273438 109.199219c4.292968 4.0625 8.941406 7.632813 13.855468 10.71875l-38.066406 29.792969c-1.015625-.105469-2.015625-.3125-3.0625-.3125-16.070312 0-29.273438 11.9375-31.535156 27.382812zm166.40625-56.863281c4.914062-3.085937 9.570312-6.648437 13.855468-10.71875l115.273438-109.199219v220.984376zm-47.648438-162.519531h1.546875c8.398438 0 15.230469 6.832031 15.230469 15.222656l-6.921875 104.28125c-.308594 4.769532-4.300781 8.496094-9.078125 8.496094s-8.769531-3.726562-9.078125-8.496094l-6.890625-103.335937-.03125-.945313c0-8.390625 6.832031-15.222656 15.222656-15.222656zm.777344 144c13.167969 0 24.175781-10.296875 25.046875-23.433594l5.898437-88.566406h132.976563l-114.195313 108.183594c-13.488281 12.785156-31.152343 19.816406-49.726562 19.816406s-36.238281-7.03125-49.726562-19.816406l-114.195313-108.183594h132.976563l5.90625 88.558594c.863281 13.144531 11.871093 23.441406 25.039062 23.441406zm-160.800781 128 40.800781-31.929688v31.929688zm248.800781 192h-176v-16h176zm16-139.375c0 11.085938-3.246094 21.832031-9.40625 31.0625l-22.59375 33.886719v42.425781h-144v-42.425781l-22.59375-33.886719c-6.160156-9.230469-9.40625-19.976562-9.40625-31.0625v-100.625c0-8.824219 7.175781-16 16-16s16 7.175781 16 16v88h8c22.054688 0 40 17.945312 40 40h16c0-28.167969-20.894531-51.535156-48-55.433594v-8.566406h160zm0 0"/></svg>