<svg
   xmlns="http://www.w3.org/2000/svg"
   viewBox="0 0 4000 4000"
   width="4000"
   height="4000"
   id="photon">
  <style type="text/css">
    #diamonds {
      fill: #FFF;
      stroke: none;
    }
    #d02, #d04, #d06 {
      fill: none;
      stroke: none;
    }
    #heptadecagon {
      fill: none;
      stroke: none;
    }
    #lines {
      stroke: #FFF;
      stroke-width: 1;
    }
  </style>
  <path id="heptadecagon" 
     d="m 2002.9668,2009.0232 12.3496,-2.3086 10.7189,-6.6369 7.5689,-10.0229 3.4497,-12.1241 -1.1596,-12.513 -5.6015,-11.2493 -9.3427,-8.5174 -11.694,-4.5303 h -12.5969 l -11.6996,4.5324 -9.3319,8.507 -5.6056,11.2576 -1.1596,12.513 3.4496,12.1241 7.5818,10.0398 10.678,6.6116 z"
     />
  <g id="diamonds">
    <g id="d01">
      <path d="m 2069.9912,2333.3611 -22.6007,-243.8866 -30.5596,-40.4674 -13.8727,48.7574 z" />
      <path d="m 2194.9913,2284.9292 -109.1716,-219.2473 -43.1075,-26.6913 4.6783,50.4839 z" />
      <path d="m 2294.009,2194.5888 -180.9788,-164.9918 -49.8153,-9.3118 22.6048,45.3967 z" />
      <path d="m 2353.8342,2074.6097 -228.3968,-88.4805 -49.8627,9.321 37.4555,34.1468 z" />
      <path d="m 2366.2081,1941.1207 h -244.9546 l -43.1041,26.6891 47.288,18.3194 z" />
      <path d="m 2329.5017,1812.1781 -228.385,88.476 -30.5591,40.4666 h 50.6959 z" />
      <path d="m 2248.6861,1705.2408 -180.9886,164.9887 -13.8688,48.7439 47.288,-18.3193 z" />
      <path d="m 2134.728,1634.6419 -109.1693,219.2427 4.6885,50.595 37.4503,-34.2501 z" />
      <path d="m 2002.9582,1610.0009 -22.6005,243.8837 22.6005,45.3881 22.6005,-45.3881 z" />
      <path d="m 1871.1884,1634.6419 67.0299,235.5854 37.4602,34.1512 4.6792,-50.4939 z" />
      <path d="m 1757.1971,1705.1969 147.6031,195.4578 47.2877,18.3191 -13.8696,-48.7465 z" />
      <path d="m 1676.3822,1812.1659 208.2667,128.9548 h 50.7099 l -30.5586,-40.466 z" />
      <path d="m 1639.7098,1941.1207 240.7723,45.0068 47.2758,-18.3145 -43.109,-26.6923 z" />
      <path d="m 1652.0497,2074.6219 240.817,-45.0171 37.4705,-34.158 -49.8551,-9.3193 z" />
      <path d="m 1711.8663,2194.6041 208.2372,-128.9358 22.5959,-45.379 -49.8327,9.3155 z" />
      <path d="m 1810.9251,2284.9292 147.6008,-195.4547 5.9798,-51.299 -44.4022,27.4928 z" />
      <path d="m 1935.9252,2333.3611 67.033,-235.5966 -13.8727,-48.7574 -30.5596,40.4674 z" />
    </g>
    <g id="d02">
      <path d="m 2002.9582,2097.7645 -13.8727,-48.7574 13.8727,-18.3704 13.8727,18.3704 z" />
      <path d="m 2047.3905,2089.4745 -30.5596,-40.4674 6.2997,-22.1411 19.5816,12.1246 z" />
      <path d="m 2085.8197,2065.6819 -43.1075,-26.6913 -2.1253,-22.9352 22.628,4.2298 z" />
      <path d="m 2113.0302,2029.597 -49.8153,-9.3118 -10.2607,-20.6064 22.6205,-4.2286 z" />
      <path d="m 2125.4374,1986.1292 -49.8627,9.321 -17.0143,-15.5113 19.589,-12.1291 z" />
      <path d="m 2121.2535,1941.1207 -43.1041,26.6891 -21.4665,-8.316 13.8747,-18.3731 z" />
      <path d="m 2101.1167,1900.6541 -47.288,18.3193 -6.3015,22.1473 h 23.0304 z" />
      <path d="m 2067.6975,1870.2295 -37.4597,34.1482 2.1232,22.9122 21.4677,-8.3165 z" />
      <path d="m 2025.5587,1853.8846 -22.6005,45.3881 10.2651,20.6153 17.0239,-15.4084 z" />
      <path d="m 1980.3577,1853.8846 -4.6792,50.4939 17.0139,15.5109 10.2658,-20.6167 z" />
      <path d="m 1938.2183,1870.2273 13.8696,48.7465 21.4674,8.3165 2.1232,-22.9118 z" />
      <path d="m 1904.8002,1900.6547 30.5586,40.466 h 23.0304 l -6.3013,-22.1469 z" />
      <path d="m 1884.6489,1941.1207 43.109,26.6923 21.4753,-8.3195 -13.8744,-18.3728 z" />
      <path d="m 1880.4821,1986.1275 49.8551,9.3193 17.0088,-15.5052 -19.5881,-12.1286 z" />
      <path d="m 1892.8667,2029.6048 49.8327,-9.3155 10.2641,-20.6131 -22.6263,-4.2294 z" />
      <path d="m 1920.1035,2065.6683 43.1016,-26.6875 2.1241,-22.9218 -22.6298,4.2303 z" />
      <path d="m 1958.5259,2089.4745 30.5596,-40.4674 -6.3019,-22.1489 -19.5785,12.1226 z" />
    </g>
    <g id="d03">
      <path d="m 2016.8309,2049.0071 6.2997,-22.1411 -11.8051,-7.3095 -8.3673,11.0802 z" />
      <path d="m 2042.7122,2038.9906 -2.1253,-22.9352 -13.6542,-2.5524 -3.8021,13.363 z" />
      <path d="m 2063.2149,2020.2852 -10.2607,-20.6064 -13.6485,2.5514 1.2811,13.8252 z" />
      <path d="m 2075.5747,1995.4502 -17.0143,-15.5113 -11.798,7.305 6.1918,12.4349 z" />
      <path d="m 2078.1494,1967.8098 -21.4665,-8.316 -8.3786,11.095 10.2561,9.3501 z" />
      <path d="m 2070.5576,1941.1207 h -23.0304 l -3.7996,13.3542 12.9553,5.0189 z" />
      <path d="m 2053.8287,1918.9734 -21.4677,8.3165 1.2817,13.8308 h 13.8845 z" />
      <path d="m 2030.2378,1904.3777 -17.0145,15.5103 6.1844,12.42 12.9533,-5.0181 z" />
      <path d="m 2002.9582,1899.2727 -10.2658,20.6167 10.2643,9.3576 10.2666,-9.359 z" />
      <path d="m 1975.6785,1904.3785 -2.1232,22.9118 12.9532,5.018 6.1839,-12.4189 z" />
      <path d="m 1952.0879,1918.9738 6.3013,22.1469 h 13.8845 l 1.2816,-13.8304 z" />
      <path d="m 1935.3588,1941.1207 13.8744,18.3728 12.9555,-5.019 -3.7995,-13.3538 z" />
      <path d="m 1927.7579,1967.813 19.5881,12.1286 10.2635,-9.3562 -8.3763,-11.0919 z" />
      <path d="m 1930.3372,1995.4468 22.6263,4.2294 6.1871,-12.4254 -11.8046,-7.3092 z" />
      <path d="m 1942.6994,2020.2893 22.6298,-4.2303 1.2818,-13.8317 -13.6475,-2.5511 z" />
      <path d="m 1963.2051,2038.9808 19.5785,-12.1226 -3.7989,-13.3519 -13.6555,2.5527 z" />
      <path d="m 1989.0855,2049.0071 13.8727,-18.3704 -8.372,-11.0864 -11.8026,7.3079 z" />
    </g>
    <g id="d04">
      <path d="m 2002.9582,2030.6367 8.3674,-11.0802 -8.3747,-5.1854 -8.3647,5.1792 z" />
      <path d="m 2023.1306,2026.866 3.8021,-13.363 -9.6707,-1.8076 -5.9364,7.8611 z" />
      <path d="m 2040.5869,2016.0554 -1.2812,-13.8252 -9.6805,1.8096 -2.6925,9.4632 z" />
      <path d="m 2052.9542,1999.6788 -6.1918,-12.4349 -8.3655,5.1798 0.9088,9.8065 z" />
      <path d="m 2058.5604,1979.9389 -10.2561,-9.3501 -5.927,7.8486 4.3851,8.8065 z" />
      <path d="m 2056.6829,1959.4938 -12.9553,-5.0189 -2.6978,9.4819 7.2745,6.632 z" />
      <path d="m 2047.5272,1941.1207 h -13.8845 l 0.9081,9.7991 9.1768,3.5551 z" />
      <path d="m 2032.361,1927.2899 -12.9533,5.0181 4.3882,8.8127 h 9.8468 z" />
      <path d="m 2013.2233,1919.888 -10.2666,9.359 7.2622,6.6207 9.1888,-3.5597 z" />
      <path d="m 1992.6924,1919.8894 -6.1839,12.4189 9.1862,3.5587 7.262,-6.62 z" />
      <path d="m 1973.5553,1927.2903 -1.2816,13.8304 h 9.8468 l 4.388,-8.8124 z" />
      <path d="m 1958.3892,1941.1207 3.7995,13.3538 9.1769,-3.5551 0.9081,-9.7987 z" />
      <path d="m 1949.2332,1959.4935 8.3763,11.0919 7.2759,-6.6327 -2.6967,-9.4782 z" />
      <path d="m 1947.346,1979.9416 11.8046,7.3092 4.3885,-8.8134 -5.9296,-7.852 z" />
      <path d="m 1952.9635,1999.6762 13.6475,2.5511 0.9077,-9.7952 -8.3681,-5.1813 z" />
      <path d="m 1965.3292,2016.059 13.6555,-2.5527 -2.6944,-9.4697 -9.6793,-1.8093 z" />
      <path d="m 1982.7836,2026.8582 11.8026,-7.3079 -5.9296,-7.852 -9.6719,1.808 z" />
    </g>
    <g
       id="d05">
      <path d="m 2011.3256,2019.5565 5.9364,-7.8611 -7.6732,-1.4344 -6.6379,4.1101 z" />
      <path d="m 2026.9326,2013.503 2.6926,-9.4632 -7.6638,1.4327 -4.6994,6.2229 z" />
      <path d="m 2039.3057,2002.2302 -0.9088,-9.8065 -6.6357,4.1086 -2.136,7.5075 z" />
      <path d="m 2046.7624,1987.2439 -4.3851,-8.8065 -4.6998,6.2235 0.7194,7.7628 z" />
      <path d="m 2048.3043,1970.5888 -7.2745,-6.632 -2.1319,7.4929 3.4794,6.9877 z" />
      <path d="m 2043.7276,1954.4749 -9.1768,-3.5551 0.7217,7.7884 5.7573,5.2486 z" />
      <path d="m 2033.6427,1941.1207 h -9.8468 l 3.4751,6.979 7.2798,2.8201 z" />
      <path d="m 2019.4077,1932.308 -9.1888,3.5597 5.762,5.253 h 7.815 z" />
      <path d="m 2002.9567,1929.247 -7.262,6.62 7.2629,2.8137 7.2613,-2.813 z" />
      <path d="m 1986.5085,1932.3083 -4.388,8.8124 h 7.8111 l 5.7631,-5.2537 z" />
      <path d="m 1972.2737,1941.1207 -0.9081,9.7987 7.2801,-2.8203 3.4748,-6.9784 z" />
      <path d="m 1962.1887,1954.4745 2.6967,9.4782 5.759,-5.2498 0.7212,-7.7835 z" />
      <path d="m 1957.6095,1970.5854 5.9296,7.852 3.4794,-6.9877 -2.1331,-7.497 z" />
      <path d="m 1959.1506,1987.2508 8.3681,5.1813 0.7201,-7.7712 -4.6997,-6.2235 z" />
      <path d="m 1966.611,2002.2273 9.6793,1.8093 -2.132,-7.4934 -6.6396,-4.1111 z" />
      <path d="m 1978.9847,2013.5063 9.6719,-1.808 -4.7043,-6.2294 -7.662,-1.4323 z" />
      <path d="m 1994.5862,2019.5503 8.3647,-5.1792 -6.6305,-4.1055 -7.6638,1.4327 z" />
    </g>
    <g
       id="d06">
      <path d="m 2002.9509,2014.3711 6.6379,-4.1101 -6.6219,-1.2378 -6.6465,1.2424 z" />
      <path d="m 2017.262,2011.6954 4.6994,-6.2229 -6.645,1.2421 -5.7276,3.5464 z" />
      <path d="m 2029.6252,2004.0398 2.136,-7.5075 -5.7259,3.5454 -4.0739,5.3948 z" />
      <path d="m 2038.3969,1992.4237 -0.7194,-7.7628 -4.0733,5.3939 -1.843,6.4775 z" />
      <path d="m 2042.3773,1978.4374 -3.4794,-6.9877 -1.844,6.481 0.6236,6.7302 z" />
      <path d="m 2041.0298,1963.9568 -5.7573,-5.2486 0.6218,6.7095 3.0036,6.032 z" />
      <path d="m 2034.5508,1950.9198 -7.2798,-2.8201 3.0218,6.0687 4.9797,4.5398 z" />
      <path d="m 2023.7959,1941.1207 h -7.815 l 4.9693,4.5303 6.3208,2.4487 z" />
      <path d="m 2010.2189,1935.8677 -7.2613,2.813 6.2985,2.44 h 6.7248 z" />
      <path d="m 1995.6947,1935.867 -5.7631,5.2537 h 6.7276 l 6.2984,-2.44 z" />
      <path d="m 1982.1205,1941.1207 -3.4748,6.9784 6.3139,-2.446 4.972,-4.5324 z" />
      <path d="m 1971.3656,1950.9194 -0.7212,7.7835 4.9833,-4.5428 3.018,-6.061 z" />
      <path d="m 1964.8854,1963.9527 2.1331,7.497 3.0036,-6.032 0.6223,-6.7148 z" />
      <path d="m 1963.5391,1978.4374 4.6997,6.2235 0.6237,-6.7302 -1.844,-6.481 z" />
      <path d="m 1967.5187,1992.4321 6.6396,4.1111 -1.8462,-6.4884 -4.0733,-5.3939 z" />
      <path d="m 1976.2903,2004.0366 7.662,1.4323 -4.0584,-5.3743 -5.7356,-3.5514 z" />
      <path d="m 1988.6566,2011.6983 7.6638,-1.4327 -5.7485,-3.5594 -6.6196,-1.2373 z" />
    </g>
    <g
       id="d07">
      <path d="m 2009.5888,2010.261 5.7276,-3.5464 -12.3496,2.3086 z" />
      <path d="m 2021.9614,2005.4725 4.0739,-5.3948 -10.7189,6.6369 z" />
      <path d="m 2031.7612,1996.5323 1.843,-6.4775 -7.5689,10.0229 z" />
      <path d="m 2037.6775,1984.6609 -0.6236,-6.7302 -3.4497,12.1241 z" />
      <path d="m 2038.8979,1971.4497 -3.0036,-6.032 1.1596,12.513 z" />
      <path d="m 2035.2725,1958.7082 -4.9797,-4.5398 5.6015,11.2493 z" />
      <path d="m 2027.271,1948.0997 -6.3209,-2.4487 9.3427,8.5174 z" />
      <path d="m 2015.9809,1941.1207 h -6.7248 l 11.694,4.5303 z" />
      <path d="m 2002.9576,1938.6807 -6.2984,2.44 h 12.5969 z" />
      <path d="m 1989.9316,1941.1207 -4.972,4.5324 11.6996,-4.5324 z" />
      <path d="m 1978.6457,1948.0991 -3.018,6.061 9.3319,-8.507 z" />
      <path d="m 1970.6444,1958.7029 -0.6223,6.7148 5.6056,-11.2576 z" />
      <path d="m 1967.0185,1971.4497 1.844,6.481 1.1596,-12.513 z" />
      <path d="m 1968.2388,1984.6609 4.0733,5.3939 -3.4496,-12.1241 z" />
      <path d="m 1974.1583,1996.5432 5.7356,3.5514 -7.5818,-10.0398 z" />
      <path d="m 1983.9523,2005.4689 6.6196,1.2373 -10.678,-6.6116 z" />
      <path d="m 1996.3204,2010.2656 6.6464,-1.2424 -12.3949,-2.317 z" />
    </g>
  </g>
  <g id="lines">
    <path id="n01" d="M 2599.8081,0 1461.6495,4000.2114" />
    <path id="n02" d="m 1853.7679,0 370.6955,4000.2114" />
    <path id="n03" d="m 1057.2414,0 1991.858,4000.2114" />
    <path id="n04" d="M 0,103.2228 4000.2366,3750.0931" />
    <path id="n06" d="M 0,1941.1207 H 4000.2366" />
    <path id="n07" d="M 0,2714.6232 4000.2366,1164.9381" />
    <path id="n08" d="M 0,3755.1353 4000.2366,108.5316" />
    <path id="n09" d="M 2948.6698,0 956.81202,4000.2114" />
    <path id="n10" d="M 2152.1481,0 1781.4527,4000.2114" />
    <path id="n11" d="M 1406.0963,0 2544.255,4000.2114" />
    <path id="n12" d="m 469.5242,0 3020.824,4000.2114" />
    <path id="n13" d="M 0,774.1815 4000.2366,3251.0529" />
    <path id="n14" d="m 0,1634.615 4000.2366,747.7515" />
    <path id="n05" d="M 0,1162.7382 4000.2366,2712.4233" />
    <path id="n15" d="m 0,2383.4477 4000.2366,-747.784" />
    <path id="n16" d="M 0,3254.5536 4000.2366,777.6963" />
    <path id="n17" d="M 3536.4227,0 515.59846,4000.2114" />
  </g>
</svg>
