<svg height="496pt" viewBox="0 0 496 496" width="496pt" xmlns="http://www.w3.org/2000/svg"><path d="m472.695312 422.832031c1.671876-2.65625 3.496094-5.214843 5.566407-7.585937 11.425781-13.09375 17.71875-29.878906 17.71875-47.246094 0-20.449219-8.742188-40-23.984375-53.648438-11.191406-10.023437-25.230469-16.160156-40.015625-17.839843v-40.511719h-128v-16h64v-16h-16c-8.824219 0-16-7.175781-16-16s7.175781-16 16-16h16v-192h-200c-22.054688 0-40 17.945312-40 40v168c0 17.648438 14.351562 32 32 32h32v16h-128v40.441406c-.0625.007813-.125 0-.183594.007813-31.582031 3.503906-58.046875 28.757812-62.917969 60.0625-3.289062 21.136719 2.75 42.425781 16.558594 58.417969 2.152344 2.503906 4.039062 5.183593 5.769531 7.949218-4.449219 4.359375-7.226562 10.417969-7.226562 17.121094 0 10.664062 7.042969 19.625 16.679687 22.734375 3.226563 18.851563 19.578125 33.265625 39.320313 33.265625 19.746093 0 36.097656-14.414062 39.320312-33.265625 9.640625-3.109375 16.679688-12.070313 16.679688-22.734375 0-6.734375-2.804688-12.808594-7.285157-17.167969 1.671876-2.65625 3.496094-5.214843 5.566407-7.585937 11.425781-13.09375 17.71875-29.878906 17.71875-47.246094 0-20.449219-8.742188-40-23.984375-53.648438-11.199219-10.023437-25.230469-16.167968-40.015625-17.839843v-24.511719h128v-32h32v56.441406c-.0625.007813-.125 0-.183594.007813-31.582031 3.503906-58.046875 28.757812-62.917969 60.0625-3.289062 21.136719 2.75 42.425781 16.558594 58.417969 2.160156 2.503906 4.039062 5.183593 5.777344 7.949218-4.457032 4.359375-7.234375 10.417969-7.234375 17.121094 0 10.664062 7.042969 19.625 16.679687 22.734375 3.226563 18.851563 19.578125 33.265625 39.320313 33.265625 19.746093 0 36.097656-14.414062 39.320312-33.265625 9.640625-3.109375 16.679688-12.070313 16.679688-22.734375 0-6.734375-2.804688-12.808594-7.285157-17.167969 1.671876-2.65625 3.496094-5.214843 5.566407-7.585937 11.425781-13.09375 17.71875-29.878906 17.71875-47.246094 0-20.449219-8.742188-40-23.984375-53.648438-11.191406-10.023437-25.230469-16.160156-40.015625-17.839843v-56.511719h32v32h128v24.441406c-.0625.007813-.125 0-.183594.007813-31.582031 3.503906-58.046875 28.757812-62.917969 60.0625-3.289062 21.136719 2.75 42.425781 16.558594 58.417969 2.160156 2.503906 4.039062 5.183593 5.777344 7.949218-4.457032 4.359375-7.234375 10.417969-7.234375 17.121094 0 10.664062 7.042969 19.625 16.679687 22.734375 3.226563 18.851563 19.578125 33.265625 39.320313 33.265625 19.746093 0 36.097656-14.414062 39.320312-33.265625 9.640625-3.109375 16.679688-12.070313 16.679688-22.734375 0-6.734375-2.804688-12.808594-7.285157-17.167969zm-400.714843 57.167969c-10.414063 0-19.214844-6.710938-22.527344-16h45.050781c-3.304687 9.289062-12.105468 16-22.523437 16zm32-32h-64c-4.40625 0-8-3.585938-8-8s3.59375-8 8-8h64c4.410156 0 8 3.585938 8 8s-3.589844 8-8 8zm-40-80c0-4.414062 3.59375-8 8-8 4.410156 0 8 3.585938 8 8s-3.589844 8-8 8c-4.40625 0-8-3.585938-8-8zm64 0c0 13.503906-4.894531 26.542969-13.773438 36.71875-3.097656 3.546875-5.722656 7.449219-8.121093 11.496094-.703126-.0625-1.382813-.214844-2.105469-.214844h-24v-25.472656c9.289062-3.3125 16-12.113282 16-22.527344 0-13.230469-10.765625-24-24-24-13.230469 0-24 10.769531-24 24 0 10.414062 6.714843 19.214844 16 22.527344v25.472656h-24c-.75 0-1.453125.152344-2.183594.222656-2.421875-4.109375-5.09375-8.085937-8.246094-11.742187-10.898437-12.617188-15.464843-28.785157-12.855469-45.503907 3.773438-24.289062 24.328126-43.886718 48.863282-46.609374 16.214844-1.824219 31.742187 3.152343 43.765625 13.90625 11.859375 10.605468 18.65625 25.824218 18.65625 41.726562zm120 112c-10.414063 0-19.214844-6.710938-22.527344-16h45.050781c-3.304687 9.289062-12.105468 16-22.523437 16zm32-32h-64c-4.40625 0-8-3.585938-8-8s3.59375-8 8-8h64c4.410156 0 8 3.585938 8 8s-3.589844 8-8 8zm-40-80c0-4.414062 3.59375-8 8-8 4.410156 0 8 3.585938 8 8s-3.589844 8-8 8c-4.40625 0-8-3.585938-8-8zm64 0c0 13.503906-4.894531 26.542969-13.773438 36.71875-3.097656 3.546875-5.722656 7.449219-8.121093 11.496094-.703126-.0625-1.382813-.214844-2.105469-.214844h-24v-25.472656c9.289062-3.3125 16-12.113282 16-22.527344 0-13.230469-10.765625-24-24-24-13.230469 0-24 10.769531-24 24 0 10.414062 6.714843 19.214844 16 22.527344v25.472656h-24c-.75 0-1.453125.152344-2.183594.222656-2.421875-4.101562-5.085937-8.085937-8.246094-11.742187-10.898437-12.617188-15.464843-28.785157-12.855469-45.503907 3.773438-24.289062 24.328126-43.886718 48.863282-46.609374 16.230468-1.824219 31.75 3.152343 43.765625 13.90625 11.859375 10.605468 18.65625 25.824218 18.65625 41.726562zm48-192h-160v-160h160zm-208-136c0-13.230469 10.769531-24 24-24h8v160h-16c-5.824219 0-11.285157 1.558594-16 4.296875zm0 168c0-8.824219 7.175781-16 16-16h164.449219c-2.75 4.726562-4.449219 10.144531-4.449219 16s1.699219 11.273438 4.449219 16h-164.449219c-8.824219 0-16-7.175781-16-16zm237.570312 196.480469c-10.898437-12.617188-15.464843-28.785157-12.855469-45.503907 3.773438-24.289062 24.328126-43.886718 48.863282-46.609374 16.222656-1.824219 31.742187 3.152343 43.765625 13.90625 11.859375 10.605468 18.65625 25.824218 18.65625 41.726562 0 13.503906-4.894531 26.542969-13.773438 36.71875-3.097656 3.546875-5.722656 7.449219-8.121093 11.496094-.703126-.0625-1.382813-.214844-2.105469-.214844h-24v-25.472656c9.289062-3.3125 16-12.113282 16-22.527344 0-13.230469-10.765625-24-24-24-13.230469 0-24 10.769531-24 24 0 10.414062 6.714843 19.214844 16 22.527344v25.472656h-24c-.75 0-1.453125.152344-2.183594.222656-2.421875-4.109375-5.09375-8.085937-8.246094-11.742187zm34.429688-36.480469c0-4.414062 3.59375-8 8-8 4.410156 0 8 3.585938 8 8s-3.589844 8-8 8c-4.40625 0-8-3.585938-8-8zm8 112c-10.414063 0-19.214844-6.710938-22.527344-16h45.050781c-3.304687 9.289062-12.105468 16-22.523437 16zm32-32h-64c-4.40625 0-8-3.585938-8-8s3.59375-8 8-8h64c4.410156 0 8 3.585938 8 8s-3.589844 8-8 8zm0 0"/><path d="m335.980469 32h-128v96h128zm-16 80h-96v-64h96zm0 0"/><path d="m207.980469 144h128v16h-128zm0 0"/></svg>