<svg height="496pt" viewBox="0 0 496 496" width="496pt" xmlns="http://www.w3.org/2000/svg"><path d="m248 144c17.648438 0 32-14.351562 32-32s-14.351562-32-32-32-32 14.351562-32 32 14.351562 32 32 32zm0-48c8.824219 0 16 7.175781 16 16s-7.175781 16-16 16-16-7.175781-16-16 7.175781-16 16-16zm0 0"/><path d="m456 312v-16c0-8.824219-7.175781-16-16-16h-16v-56c0-13.230469-10.769531-24-24-24h-16c-13.230469 0-24 10.769531-24 24v45.785156l-67.265625-112.105468c11.875-11.625 19.265625-27.792969 19.265625-45.679688 0-23.625-12.902344-44.257812-32-55.34375v-32.65625c0-13.230469-10.769531-24-24-24h-16c-13.230469 0-24 10.769531-24 24v32.65625c-19.097656 11.085938-32 31.710938-32 55.34375 0 18.128906 7.609375 34.480469 19.761719 46.136719l-80.648438 153.960937c-2.035156 3.878906-3.113281 8.253906-3.113281 12.644532 0 11.011718 6.59375 20.457031 16 24.753906v26.503906h16v-24.28125c8.785156-1.246094 16.425781-6.671875 20.480469-14.789062l36.464843-72.929688h85.199219l10.359375 17.953125c-5.03125 2.695313-8.503906 7.949219-8.503906 14.046875v16c0 8.824219 7.175781 16 16 16h48v19.3125l32 32 32-32v-19.3125h16c8.824219 0 16-7.175781 16-16zm-80-32v-32h32v32zm8-64h16c4.40625 0 8 3.585938 8 8v8h-32v-8c0-4.414062 3.59375-8 8-8zm-36.527344 64h-25.617187l-60.777344-105.351562c6.738281-1.402344 13.058594-3.914063 18.832031-7.25zm-114.527344-64 15.558594-31.121094 17.953125 31.121094zm-.945312-192c0-4.414062 3.59375-8 8-8h16c4.40625 0 8 3.585938 8 8v26.105469c-5.128906-1.328125-10.464844-2.105469-16-2.105469s-10.871094.777344-16 2.105469zm-32 88c0-26.472656 21.527344-48 48-48s48 21.527344 48 48-21.527344 48-48 48-48-21.527344-48-48zm-41.832031 217.777344c-1.921875 3.839844-5.777344 6.222656-10.070313 6.222656h-.832031c-6.21875 0-11.265625-5.046875-11.265625-11.257812 0-1.8125.449219-3.613282 1.289062-5.222657l79.472657-151.71875c5.804687 3.261719 12.167969 5.65625 18.910156 6.984375zm66.777343-97.777344h15.054688v16h-23.054688zm31.054688 16v-16h19.6875l9.234375 16zm55.992188 48h128.007812v16h-128zm96.007812 44.6875-16 16-16-16v-12.6875h32zm0 0"/><path d="m392.128906 408.878906-10.679687-11.902344c-36.707031 32.894532-84.097657 51.023438-133.449219 51.023438-49.214844 0-96.519531-18.039062-133.191406-50.808594l-10.65625 11.9375c39.609375 35.382813 90.6875 54.871094 143.847656 54.871094 53.296875 0 104.488281-19.566406 144.128906-55.121094zm0 0"/><path d="m248 480c-57.097656 0-111.96875-20.929688-154.511719-58.9375l-10.65625 11.9375c45.480469 40.625 104.136719 63 165.167969 63 61.183594 0 119.960938-22.480469 165.488281-63.28125l-10.679687-11.917969c-42.59375 38.175781-97.570313 59.199219-154.808594 59.199219zm0 0"/><path d="m201.03125 23.441406c4.199219-1.371094 6.503906-5.882812 5.136719-10.082031-1.367188-4.199219-5.878907-6.503906-10.078125-5.136719-4.203125 1.371094-6.503906 5.882813-5.136719 10.082032 1.359375 4.199218 5.871094 6.503906 10.078125 5.136718zm0 0"/><path d="m161.359375 35.527344c-1.679687-4.085938-6.351563-6.039063-10.4375-4.359375-4.089844 1.675781-6.042969 6.351562-4.363281 10.4375 1.675781 4.085937 6.351562 6.039062 10.4375 4.363281 4.089844-1.679688 6.042968-6.351562 4.363281-10.441406zm0 0"/><path d="m125.03125 78.65625c2.601562-3.578125 1.808594-8.578125-1.765625-11.175781-3.578125-2.601563-8.578125-1.808594-11.175781 1.765625-2.601563 3.578125-1.808594 8.578125 1.765625 11.179687 3.578125 2.597657 8.578125 1.804688 11.175781-1.769531zm0 0"/><path d="m93.359375 126.167969c4.199219 1.367187 8.710937-.9375 10.082031-5.136719 1.367188-4.199219-.9375-8.710938-5.136718-10.078125-4.199219-1.367187-8.710938.933594-10.082032 5.136719-1.367187 4.199218.9375 8.710937 5.136719 10.078125zm0 0"/><path d="m96 168c0 4.417969-3.582031 8-8 8s-8-3.582031-8-8 3.582031-8 8-8 8 3.582031 8 8zm0 0"/><path d="m93.359375 209.832031c-4.199219 1.367188-6.503906 5.878907-5.136719 10.078125 1.371094 4.203125 5.882813 6.503906 10.082032 5.136719 4.199218-1.367187 6.503906-5.878906 5.136718-10.078125-1.371094-4.199219-5.882812-6.496094-10.082031-5.136719zm0 0"/><path d="m123.257812 268.519531c3.574219-2.597656 4.367188-7.597656 1.765626-11.175781-2.597657-3.574219-7.597657-4.367188-11.175782-1.769531-3.574218 2.601562-4.367187 7.601562-1.769531 11.179687 2.601563 3.566406 7.609375 4.359375 11.179687 1.765625zm0 0"/><path d="m294.96875 23.441406c4.199219 1.367188 8.710938-.9375 10.078125-5.136718 1.367187-4.199219-.933594-8.710938-5.136719-10.082032-4.199218-1.367187-8.710937.9375-10.078125 5.136719-1.359375 4.199219.9375 8.710937 5.136719 10.082031zm0 0"/><path d="m345.523438 31.359375c-3.980469-1.921875-8.761719-.253906-10.683594 3.726563-1.921875 3.976562-.253906 8.761718 3.726562 10.679687 3.976563 1.921875 8.761719.253906 10.679688-3.722656 1.921875-3.980469.253906-8.761719-3.722656-10.683594zm0 0"/><path d="m382.144531 80.425781c3.574219-2.601562 4.367188-7.601562 1.765625-11.179687-2.597656-3.574219-7.597656-4.367188-11.175781-1.765625-3.574219 2.597656-4.367187 7.597656-1.765625 11.175781 2.597656 3.574219 7.597656 4.367188 11.175781 1.769531zm0 0"/><path d="m402.640625 126.167969c4.199219-1.367188 6.503906-5.878907 5.136719-10.078125-1.371094-4.203125-5.882813-6.503906-10.082032-5.136719-4.199218 1.367187-6.503906 5.878906-5.136718 10.078125 1.371094 4.199219 5.882812 6.496094 10.082031 5.136719zm0 0"/><path d="m416 168c0 4.417969-3.582031 8-8 8s-8-3.582031-8-8 3.582031-8 8-8 8 3.582031 8 8zm0 0"/><path d="m0 240h16v16h-16zm0 0"/><path d="m32 240h16v16h-16zm0 0"/><path d="m16 224h16v16h-16zm0 0"/><path d="m16 256h16v16h-16zm0 0"/><path d="m448 416h16v16h-16zm0 0"/><path d="m480 416h16v16h-16zm0 0"/><path d="m464 400h16v16h-16zm0 0"/><path d="m464 432h16v16h-16zm0 0"/><path d="m32 352h16v16h-16zm0 0"/><path d="m64 352h16v16h-16zm0 0"/><path d="m48 336h16v16h-16zm0 0"/><path d="m48 368h16v16h-16zm0 0"/><path d="m32 32h16v16h-16zm0 0"/><path d="m64 32h16v16h-16zm0 0"/><path d="m48 16h16v16h-16zm0 0"/><path d="m48 48h16v16h-16zm0 0"/><path d="m432 32h16v16h-16zm0 0"/><path d="m464 32h16v16h-16zm0 0"/><path d="m448 16h16v16h-16zm0 0"/><path d="m448 48h16v16h-16zm0 0"/></svg>